<?xml version="1.0" encoding="utf-8"?>
<!-- Generator: Adobe Illustrator 16.0.0, SVG Export Plug-In . SVG Version: 6.00 Build 0)  -->
<!DOCTYPE svg PUBLIC "-//W3C//DTD SVG 1.1//EN" "http://www.w3.org/Graphics/SVG/1.1/DTD/svg11.dtd">
<svg version="1.1" id="Layer_1" xmlns="http://www.w3.org/2000/svg" xmlns:xlink="http://www.w3.org/1999/xlink" x="0px" y="0px"
	 width="864px" height="216px" viewBox="0 0 864 216" enable-background="new 0 0 864 216" xml:space="preserve">
<g>
	<g>
		<path fill="#FFFFFF" d="M76.959,101.387c12.263,0,17.922,7.076,17.922,16.98c0,6.791-3.301,12.734-9.433,14.998
			c6.603,1.98,11.319,8.113,11.319,16.131c0,13.205-9.433,17.922-20.752,17.922H58.093v-66.031H76.959z M62.809,105.633v25.939
			h14.15c6.604,0,12.734-3.678,12.734-13.205c0-7.264-3.302-12.734-12.734-12.734H62.809z M62.809,135.818v27.355h13.207
			c8.489,0,15.564-2.83,15.564-13.678c0-7.547-4.057-13.678-12.924-13.678H62.809z"/>
		<path fill="#FFFFFF" d="M114.69,146.666v-45.279h4.716v45.279c0,11.037,4.717,17.451,15.754,17.451
			c11.131,0,15.848-6.414,15.848-17.451v-45.279h4.717v45.279c0,14.527-7.453,21.695-20.564,21.695S114.69,161.193,114.69,146.666z"
			/>
		<path fill="#FFFFFF" d="M181.191,167.418h-4.716v-66.031h4.716V167.418z"/>
		<path fill="#FFFFFF" d="M207.604,101.387v61.787h28.299v4.244h-33.016v-66.031H207.604z"/>
		<path fill="#FFFFFF" d="M268.917,101.387c17.923,0,25.469,15.094,25.469,33.016c0,17.924-7.546,33.016-25.469,33.016h-16.979
			v-66.031H268.917z M256.654,105.633v57.541h12.734c14.149,0,19.809-13.678,19.809-28.771c0-15.092-5.659-28.77-19.809-28.77
			H256.654z"/>
		<path fill="#FFFFFF" d="M317.967,167.418h-4.716v-66.031h4.716V167.418z"/>
		<path fill="#FFFFFF" d="M374.093,167.418l-29.524-58.012h-0.189v58.012h-4.717v-66.031h6.132l29.525,58.014h0.188v-58.014h4.717
			v66.031H374.093z"/>
		<path fill="#FFFFFF" d="M423.615,138.176h17.451v27.355c-4.811,1.793-9.904,2.83-16.508,2.83
			c-17.923,0-25.469-16.035-25.469-33.959c0-17.922,7.546-33.959,25.469-33.959c5.66,0,10.754,1.039,15.564,2.83v4.246
			c-5.188-1.887-10.659-2.83-16.036-2.83c-14.149,0-19.81,14.621-19.81,29.713c0,15.094,6.132,29.715,20.281,29.715
			c4.717,0,7.734-0.473,11.791-1.416v-20.279h-12.734V138.176z"/>
	</g>
	<g>
		<path fill="#FFFFFF" d="M514.146,132.76c0,18.867-7.546,33.959-27.355,33.959s-27.355-15.092-27.355-33.959
			c0-18.488,7.546-33.959,27.355-33.959S514.146,114.271,514.146,132.76z M474.999,132.76c0,15,2.358,21.225,11.791,21.225
			s11.791-6.225,11.791-21.225c0-14.621-2.358-21.223-11.791-21.223S474.999,118.139,474.999,132.76z"/>
		<path fill="#FFFFFF" d="M558.952,139.74l14.622,26.035h-18.111l-11.792-24.525h-4.527v24.525h-15.093V99.744h25.94
			c15.093,0,20.281,10.283,20.281,20.754C570.272,128.893,567.254,136.533,558.952,139.74z M539.144,128.516h6.603
			c3.773,0,8.962,0.283,8.962-8.018c0-7.83-4.245-8.018-8.49-8.018h-7.074V128.516z"/>
		<path fill="#FFFFFF" d="M620.737,112.48h-25.94v13.205h22.167v12.734h-22.167v14.621h26.884v12.734h-41.977V99.744h41.033V112.48z
			"/>
		<path fill="#FFFFFF" d="M645.735,132.76c0,15.094,5.659,21.225,15.093,21.225h1.887v-11.318h-6.132V129.93h21.225v33.959
			c-4.812,1.793-12.734,2.83-18.395,2.83c-21.696,0-29.242-16.035-29.242-33.959c0-17.922,7.546-33.959,29.242-33.959
			c5.66,0,12.64,1.039,17.451,2.83v12.734c-5.188-1.885-10.659-2.828-16.036-2.828C651.395,111.537,645.735,117.668,645.735,132.76z
			"/>
		<path fill="#FFFFFF" d="M742.894,132.76c0,18.867-7.546,33.959-27.355,33.959s-27.355-15.092-27.355-33.959
			c0-18.488,7.546-33.959,27.355-33.959S742.894,114.271,742.894,132.76z M703.747,132.76c0,15,2.358,21.225,11.791,21.225
			s11.791-6.225,11.791-21.225c0-14.621-2.358-21.223-11.791-21.223S703.747,118.139,703.747,132.76z"/>
		<path fill="#FFFFFF" d="M787.229,165.775l-19.149-36.316h-0.188v36.316h-15.093V99.744h16.508l19.148,36.318h0.188V99.744h15.093
			v66.031H787.229z"/>
	</g>
</g>
<polyline fill="none" stroke="#FFFFFF" stroke-width="4.2917" stroke-miterlimit="10" points="802.786,71.066 468.942,71.066 
	401.323,71.066 401.323,26.879 330.488,26.879 330.488,71.066 285.412,71.066 285.412,57.373 218.867,57.373 218.867,71.066 
	172.711,71.066 172.711,42.438 95.438,42.438 95.438,71.066 57.875,71.066 "/>
</svg>
