<?xml version="1.0" encoding="utf-8"?>
<!-- Generator: Adobe Illustrator 16.0.0, SVG Export Plug-In . SVG Version: 6.00 Build 0)  -->
<!DOCTYPE svg PUBLIC "-//W3C//DTD SVG 1.1//EN" "http://www.w3.org/Graphics/SVG/1.1/DTD/svg11.dtd">
<svg version="1.1" id="Layer_1" xmlns="http://www.w3.org/2000/svg" xmlns:xlink="http://www.w3.org/1999/xlink" x="0px" y="0px"
	 width="576px" height="360px" viewBox="0 0 576 360" enable-background="new 0 0 576 360" xml:space="preserve">
<g>
	<g>
		<path fill="#FFFFFF" d="M104.893,119.1c13.115,0,19.169,7.566,19.169,18.16c0,7.264-3.531,13.62-10.089,16.041
			c7.062,2.119,12.106,8.678,12.106,17.253c0,14.125-10.089,19.169-22.196,19.169H84.714V119.1H104.893z M89.759,123.64v27.745
			h15.134c7.062,0,13.62-3.936,13.62-14.125c0-7.769-3.531-13.62-13.62-13.62H89.759z M89.759,155.925v29.259h14.124
			c9.08,0,16.647-3.027,16.647-14.63c0-8.071-4.339-14.629-13.822-14.629H89.759z"/>
		<path fill="#FFFFFF" d="M145.245,167.527V119.1h5.044v48.428c0,11.805,5.045,18.664,16.85,18.664
			c11.904,0,16.949-6.859,16.949-18.664V119.1h5.045v48.428c0,15.537-7.971,23.205-21.994,23.205S145.245,183.064,145.245,167.527z"
			/>
		<path fill="#FFFFFF" d="M216.368,189.723h-5.045V119.1h5.045V189.723z"/>
		<path fill="#FFFFFF" d="M244.615,119.1v66.084h30.268v4.539H239.57V119.1H244.615z"/>
		<path fill="#FFFFFF" d="M310.19,119.1c19.169,0,27.24,16.143,27.24,35.312s-8.071,35.312-27.24,35.312h-18.161V119.1H310.19z
			 M297.074,123.64v61.544h13.621c15.133,0,21.187-14.63,21.187-30.772s-6.054-30.771-21.187-30.771H297.074z"/>
		<path fill="#FFFFFF" d="M362.649,189.723h-5.045V119.1h5.045V189.723z"/>
		<path fill="#FFFFFF" d="M422.677,189.723l-31.579-62.047h-0.201v62.047h-5.045V119.1h6.558l31.579,62.048h0.202V119.1h5.044
			v70.623H422.677z"/>
		<path fill="#FFFFFF" d="M475.639,158.447h18.665v29.258c-5.146,1.918-10.594,3.027-17.656,3.027
			c-19.169,0-27.24-17.152-27.24-36.321s8.071-36.321,27.24-36.321c6.054,0,11.502,1.11,16.647,3.027v4.54
			c-5.549-2.018-11.401-3.026-17.151-3.026c-15.134,0-21.188,15.638-21.188,31.78s6.558,31.78,21.691,31.78
			c5.045,0,8.273-0.504,12.611-1.513v-21.692h-13.62V158.447z"/>
	</g>
	<g>
		<path fill="#FFFFFF" d="M143.52,254.648c0,22.633-9.051,40.738-32.811,40.738c-23.761,0-32.812-18.105-32.812-40.738
			c0-22.18,9.052-40.736,32.812-40.736C134.469,213.912,143.52,232.469,143.52,254.648z M96.565,254.648
			c0,17.992,2.829,25.461,14.144,25.461s14.143-7.469,14.143-25.461c0-17.539-2.828-25.461-14.143-25.461
			S96.565,237.109,96.565,254.648z"/>
		<path fill="#FFFFFF" d="M197.268,263.023l17.537,31.23h-21.724l-14.143-29.42h-5.431v29.42h-18.104v-79.211h31.115
			c18.103,0,24.325,12.334,24.325,24.895C210.845,250.01,207.225,259.176,197.268,263.023z M173.508,249.557h7.92
			c4.525,0,10.748,0.34,10.748-9.619c0-9.393-5.092-9.617-10.183-9.617h-8.485V249.557z"/>
		<path fill="#FFFFFF" d="M271.38,230.32h-31.114v15.842h26.588v15.275h-26.588v17.541h32.246v15.275h-50.35v-79.211h49.218V230.32z
			"/>
		<path fill="#FFFFFF" d="M301.367,254.648c0,18.105,6.788,25.461,18.103,25.461h2.263v-13.578h-7.354v-15.277h25.457v40.738
			c-5.771,2.148-15.275,3.395-22.063,3.395c-26.022,0-35.075-19.238-35.075-40.738s9.053-40.736,35.075-40.736
			c6.788,0,15.161,1.244,20.932,3.395v15.275c-6.223-2.262-12.785-3.395-19.234-3.395
			C308.155,229.188,301.367,236.543,301.367,254.648z"/>
		<path fill="#FFFFFF" d="M417.907,254.648c0,22.633-9.052,40.738-32.812,40.738c-23.76,0-32.812-18.105-32.812-40.738
			c0-22.18,9.052-40.736,32.812-40.736C408.855,213.912,417.907,232.469,417.907,254.648z M370.952,254.648
			c0,17.992,2.828,25.461,14.143,25.461s14.144-7.469,14.144-25.461c0-17.539-2.829-25.461-14.144-25.461
			S370.952,237.109,370.952,254.648z"/>
		<path fill="#FFFFFF" d="M471.088,294.254l-22.969-43.566h-0.226v43.566H429.79v-79.211h19.8l22.969,43.566h0.227v-43.566h18.103
			v79.211H471.088z"/>
	</g>
	<polyline fill="none" stroke="#FFFFFF" stroke-width="5.0666" stroke-miterlimit="10" points="81.565,92.334 174.367,92.334 
		227.018,92.334 227.018,34.12 282.172,34.12 282.172,92.334 317.27,92.334 317.27,74.295 369.083,74.295 369.083,92.334 
		405.021,92.334 405.021,54.617 465.188,54.617 465.188,92.334 494.435,92.334 	"/>
</g>
</svg>
